<mxfile host="app.diagrams.net" agent="Mozilla/5.0 (Windows NT 10.0; Win64; x64) AppleWebKit/537.36 (KHTML, like Gecko) Chrome/128.0.0.0 Safari/537.36 OPR/114.0.0.0" version="25.0.3">
  <diagram name="Page-1" id="0ewR-uoPoJJv2EW784uS">
    <mxGraphModel dx="837" dy="473" grid="1" gridSize="10" guides="1" tooltips="1" connect="1" arrows="1" fold="1" page="1" pageScale="1" pageWidth="827" pageHeight="1169" math="0" shadow="0">
      <root>
        <mxCell id="0" />
        <mxCell id="1" parent="0" />
        <mxCell id="LuDUhw1_Eip1LdN2Zw4--17" value="" style="rounded=0;whiteSpace=wrap;html=1;fillColor=none;" parent="1" vertex="1">
          <mxGeometry x="100" y="60" width="590" height="720" as="geometry" />
        </mxCell>
        <mxCell id="KaAmGU0IdU2BdLcn3JTv-14" style="edgeStyle=orthogonalEdgeStyle;rounded=0;orthogonalLoop=1;jettySize=auto;html=1;entryX=0;entryY=0.5;entryDx=0;entryDy=0;" parent="1" source="LuDUhw1_Eip1LdN2Zw4--9" target="KaAmGU0IdU2BdLcn3JTv-5" edge="1">
          <mxGeometry relative="1" as="geometry">
            <mxPoint x="180" y="170" as="targetPoint" />
          </mxGeometry>
        </mxCell>
        <mxCell id="KaAmGU0IdU2BdLcn3JTv-1" value="User" style="shape=umlActor;verticalLabelPosition=bottom;verticalAlign=top;html=1;" parent="1" vertex="1">
          <mxGeometry x="20" y="330" width="30" height="60" as="geometry" />
        </mxCell>
        <mxCell id="KaAmGU0IdU2BdLcn3JTv-18" style="edgeStyle=orthogonalEdgeStyle;rounded=0;orthogonalLoop=1;jettySize=auto;html=1;" parent="1" source="LuDUhw1_Eip1LdN2Zw4--14" target="KaAmGU0IdU2BdLcn3JTv-7" edge="1">
          <mxGeometry relative="1" as="geometry" />
        </mxCell>
        <mxCell id="KaAmGU0IdU2BdLcn3JTv-3" value="Threath Analysis" style="ellipse;whiteSpace=wrap;html=1;" parent="1" vertex="1">
          <mxGeometry x="440" y="220" width="140" height="70" as="geometry" />
        </mxCell>
        <mxCell id="KaAmGU0IdU2BdLcn3JTv-16" style="edgeStyle=orthogonalEdgeStyle;rounded=0;orthogonalLoop=1;jettySize=auto;html=1;" parent="1" source="KaAmGU0IdU2BdLcn3JTv-5" target="KaAmGU0IdU2BdLcn3JTv-3" edge="1">
          <mxGeometry relative="1" as="geometry">
            <mxPoint x="680" y="360" as="targetPoint" />
          </mxGeometry>
        </mxCell>
        <mxCell id="KaAmGU0IdU2BdLcn3JTv-5" value="Login" style="ellipse;whiteSpace=wrap;html=1;" parent="1" vertex="1">
          <mxGeometry x="280" y="100" width="140" height="70" as="geometry" />
        </mxCell>
        <mxCell id="KaAmGU0IdU2BdLcn3JTv-20" style="edgeStyle=orthogonalEdgeStyle;rounded=0;orthogonalLoop=1;jettySize=auto;html=1;entryX=0.5;entryY=0;entryDx=0;entryDy=0;" parent="1" source="LuDUhw1_Eip1LdN2Zw4--16" target="KaAmGU0IdU2BdLcn3JTv-9" edge="1">
          <mxGeometry relative="1" as="geometry" />
        </mxCell>
        <mxCell id="KaAmGU0IdU2BdLcn3JTv-7" value="File Analysis" style="ellipse;whiteSpace=wrap;html=1;" parent="1" vertex="1">
          <mxGeometry x="440" y="370" width="140" height="70" as="geometry" />
        </mxCell>
        <mxCell id="KaAmGU0IdU2BdLcn3JTv-22" style="edgeStyle=orthogonalEdgeStyle;rounded=0;orthogonalLoop=1;jettySize=auto;html=1;" parent="1" source="KaAmGU0IdU2BdLcn3JTv-9" target="KaAmGU0IdU2BdLcn3JTv-11" edge="1">
          <mxGeometry relative="1" as="geometry" />
        </mxCell>
        <mxCell id="KaAmGU0IdU2BdLcn3JTv-9" value="Submit File" style="ellipse;whiteSpace=wrap;html=1;" parent="1" vertex="1">
          <mxGeometry x="440" y="510" width="140" height="70" as="geometry" />
        </mxCell>
        <mxCell id="LuDUhw1_Eip1LdN2Zw4--1" style="edgeStyle=orthogonalEdgeStyle;rounded=0;orthogonalLoop=1;jettySize=auto;html=1;" parent="1" source="LuDUhw1_Eip1LdN2Zw4--3" edge="1">
          <mxGeometry relative="1" as="geometry">
            <mxPoint x="35" y="420" as="targetPoint" />
          </mxGeometry>
        </mxCell>
        <mxCell id="KaAmGU0IdU2BdLcn3JTv-11" value="Generate Report" style="ellipse;whiteSpace=wrap;html=1;" parent="1" vertex="1">
          <mxGeometry x="440" y="630" width="140" height="70" as="geometry" />
        </mxCell>
        <mxCell id="KaAmGU0IdU2BdLcn3JTv-28" value="ProjectX&amp;nbsp;" style="text;html=1;align=center;verticalAlign=middle;whiteSpace=wrap;rounded=0;" parent="1" vertex="1">
          <mxGeometry x="365" y="30" width="60" height="30" as="geometry" />
        </mxCell>
        <mxCell id="LuDUhw1_Eip1LdN2Zw4--2" value="" style="edgeStyle=orthogonalEdgeStyle;rounded=0;orthogonalLoop=1;jettySize=auto;html=1;" parent="1" source="KaAmGU0IdU2BdLcn3JTv-11" target="LuDUhw1_Eip1LdN2Zw4--3" edge="1">
          <mxGeometry relative="1" as="geometry">
            <mxPoint x="440" y="655" as="sourcePoint" />
            <mxPoint x="35" y="365" as="targetPoint" />
            <Array as="points">
              <mxPoint x="330" y="655" />
              <mxPoint x="330" y="660" />
            </Array>
          </mxGeometry>
        </mxCell>
        <mxCell id="LuDUhw1_Eip1LdN2Zw4--3" value="Show Results" style="text;html=1;align=center;verticalAlign=middle;whiteSpace=wrap;rounded=0;" parent="1" vertex="1">
          <mxGeometry x="270" y="650" width="60" height="30" as="geometry" />
        </mxCell>
        <mxCell id="LuDUhw1_Eip1LdN2Zw4--8" value="" style="edgeStyle=orthogonalEdgeStyle;rounded=0;orthogonalLoop=1;jettySize=auto;html=1;" parent="1" source="KaAmGU0IdU2BdLcn3JTv-1" target="LuDUhw1_Eip1LdN2Zw4--9" edge="1">
          <mxGeometry relative="1" as="geometry">
            <mxPoint x="50" y="490" as="sourcePoint" />
            <mxPoint x="180" y="170" as="targetPoint" />
          </mxGeometry>
        </mxCell>
        <mxCell id="LuDUhw1_Eip1LdN2Zw4--9" value="Uses" style="text;html=1;align=center;verticalAlign=middle;whiteSpace=wrap;rounded=0;" parent="1" vertex="1">
          <mxGeometry x="150" y="120" width="60" height="30" as="geometry" />
        </mxCell>
        <mxCell id="LuDUhw1_Eip1LdN2Zw4--13" value="" style="edgeStyle=orthogonalEdgeStyle;rounded=0;orthogonalLoop=1;jettySize=auto;html=1;" parent="1" source="KaAmGU0IdU2BdLcn3JTv-3" target="LuDUhw1_Eip1LdN2Zw4--14" edge="1">
          <mxGeometry relative="1" as="geometry">
            <mxPoint x="510" y="320" as="sourcePoint" />
            <mxPoint x="510" y="370" as="targetPoint" />
          </mxGeometry>
        </mxCell>
        <mxCell id="LuDUhw1_Eip1LdN2Zw4--14" value="Select&amp;nbsp;" style="text;html=1;align=center;verticalAlign=middle;whiteSpace=wrap;rounded=0;" parent="1" vertex="1">
          <mxGeometry x="480" y="320" width="60" height="30" as="geometry" />
        </mxCell>
        <mxCell id="LuDUhw1_Eip1LdN2Zw4--15" value="" style="edgeStyle=orthogonalEdgeStyle;rounded=0;orthogonalLoop=1;jettySize=auto;html=1;entryX=0.5;entryY=0;entryDx=0;entryDy=0;" parent="1" source="KaAmGU0IdU2BdLcn3JTv-7" target="LuDUhw1_Eip1LdN2Zw4--16" edge="1">
          <mxGeometry relative="1" as="geometry">
            <mxPoint x="510" y="440" as="sourcePoint" />
            <mxPoint x="510" y="510" as="targetPoint" />
          </mxGeometry>
        </mxCell>
        <mxCell id="LuDUhw1_Eip1LdN2Zw4--16" value="Uses" style="text;html=1;align=center;verticalAlign=middle;whiteSpace=wrap;rounded=0;" parent="1" vertex="1">
          <mxGeometry x="480" y="460" width="60" height="30" as="geometry" />
        </mxCell>
      </root>
    </mxGraphModel>
  </diagram>
</mxfile>
